<?xml version="1.0" standalone="no"?>
<!DOCTYPE svg PUBLIC "-//W3C//DTD SVG 20010904//EN"
 "http://www.w3.org/TR/2001/REC-SVG-20010904/DTD/svg10.dtd">
<svg version="1.0" xmlns="http://www.w3.org/2000/svg"
 width="1080.000000pt" height="1080.000000pt" viewBox="0 0 1080.000000 1080.000000"
 preserveAspectRatio="xMidYMid meet">
<metadata>
Created by potrace 1.11, written by Peter Selinger 2001-2013
</metadata>
<g transform="translate(0.000000,1080.000000) scale(0.100000,-0.100000)"
fill="#000000" stroke="none">
<path d="M4965 10679 c-1056 -91 -2041 -479 -2860 -1127 -395 -313 -760 -700
-1049 -1112 -545 -778 -864 -1666 -946 -2635 -13 -155 -13 -665 0 -820 99
-1176 553 -2244 1321 -3110 107 -121 361 -374 479 -476 854 -745 1919 -1191
3075 -1289 155 -13 665 -13 820 0 969 82 1857 401 2635 946 498 349 945 796
1294 1294 545 778 864 1666 946 2635 5 66 10 251 10 410 0 389 -25 666 -90
1002 -208 1068 -719 2020 -1492 2779 -176 173 -256 243 -423 376 -826 653
-1807 1037 -2880 1128 -142 12 -697 11 -840 -1z m825 -1049 c816 -122 1508
-591 1899 -1287 137 -244 231 -529 283 -858 19 -126 16 -486 -6 -630 -39 -258
-109 -482 -227 -721 -62 -128 -199 -348 -262 -424 -30 -35 -116 -203 -186
-362 -71 -161 -135 -333 -226 -608 -43 -129 -85 -248 -93 -265 -37 -74 -181
-211 -317 -302 -209 -140 -514 -241 -824 -273 -57 -5 -297 -10 -535 -10 -243
0 -459 -5 -496 -10 -36 -6 -93 -24 -127 -41 -50 -24 -68 -40 -90 -77 -25 -43
-28 -56 -27 -142 1 -116 24 -179 90 -240 106 -98 179 -108 750 -111 502 -2
560 3 821 67 170 41 313 90 441 150 52 24 97 44 101 44 3 0 -15 -21 -39 -46
-63 -65 -189 -162 -308 -237 -91 -58 -111 -66 -204 -86 -340 -70 -479 -82
-1043 -90 -483 -6 -491 -7 -540 -29 -126 -58 -186 -182 -172 -351 7 -82 27
-135 70 -179 83 -87 184 -104 677 -118 466 -12 865 33 1208 136 73 22 162 53
198 70 35 16 64 25 64 20 0 -17 -142 -137 -224 -189 -281 -176 -672 -268
-1222 -290 -200 -7 -223 -10 -269 -32 -184 -87 -244 -322 -118 -468 75 -88
167 -109 525 -118 251 -6 406 3 597 33 51 8 98 13 103 12 18 -6 -201 -206
-290 -265 -280 -184 -535 -201 -764 -51 -75 49 -402 375 -543 541 -122 145
-214 272 -257 357 l-33 65 3 700 c2 402 7 732 13 775 23 168 78 291 174 385
73 72 134 106 240 136 69 19 98 21 215 18 740 -22 1154 28 1431 172 87 46 178
129 209 194 53 110 48 240 -13 365 l-32 65 -765 0 c-817 0 -883 -3 -1133 -51
-293 -57 -500 -144 -632 -265 -31 -28 -46 -37 -49 -28 -2 8 -12 39 -22 69 -70
223 -339 739 -524 1005 -261 374 -378 648 -451 1060 -20 111 -23 163 -23 360
0 231 5 290 45 494 119 602 508 1173 1049 1541 359 244 829 405 1295 444 118
10 454 -4 585 -24z"/>
</g>
</svg>
