<?xml version="1.0" standalone="no"?>
<!DOCTYPE svg PUBLIC "-//W3C//DTD SVG 20010904//EN"
 "http://www.w3.org/TR/2001/REC-SVG-20010904/DTD/svg10.dtd">
<svg version="1.0" xmlns="http://www.w3.org/2000/svg"
 width="952.000000pt" height="952.000000pt" viewBox="0 0 952.000000 952.000000"
 preserveAspectRatio="xMidYMid meet">
<metadata>
Created by potrace 1.11, written by Peter Selinger 2001-2013
</metadata>
<g transform="translate(0.000000,952.000000) scale(0.100000,-0.100000)"
fill="#000000" stroke="none">
<path d="M4500 9514 c-25 -2 -101 -8 -170 -14 -69 -6 -199 -22 -290 -36 -1337
-205 -2521 -966 -3263 -2099 -424 -648 -677 -1372 -759 -2175 -17 -164 -17
-696 0 -860 82 -803 335 -1527 759 -2175 742 -1133 1927 -1895 3263 -2099 276
-42 398 -51 720 -51 322 0 444 9 720 51 1336 204 2521 966 3263 2099 424 648
677 1372 759 2175 17 164 17 696 0 860 -117 1139 -590 2149 -1377 2935 -774
774 -1769 1248 -2880 1371 -131 14 -642 27 -745 18z m635 -693 c565 -85 1060
-338 1446 -739 347 -359 552 -773 635 -1277 26 -153 26 -494 1 -655 -60 -383
-200 -722 -428 -1036 -78 -107 -202 -351 -284 -559 -26 -66 -90 -246 -141
-399 -52 -153 -103 -294 -114 -312 -33 -53 -183 -188 -282 -254 -153 -103
-298 -167 -483 -214 -220 -56 -255 -58 -805 -66 -371 -5 -526 -10 -555 -20
-142 -45 -194 -119 -182 -260 16 -181 99 -263 304 -302 49 -9 191 -13 513 -13
420 0 453 1 584 23 231 39 487 117 649 199 67 33 68 33 51 9 -27 -42 -151
-143 -285 -232 l-127 -84 -148 -29 c-313 -62 -604 -83 -1084 -79 -256 3 -302
1 -351 -14 -130 -41 -189 -122 -197 -270 -6 -115 3 -168 37 -217 57 -86 134
-116 346 -132 197 -16 723 -16 870 -1 337 36 602 98 840 196 39 17 39 16 -30
-51 -254 -246 -687 -378 -1315 -401 -201 -7 -219 -10 -271 -34 -105 -48 -166
-134 -176 -248 -10 -107 47 -214 140 -261 128 -66 783 -71 1062 -9 22 5 42 6
45 4 3 -3 -32 -41 -76 -84 -334 -321 -648 -400 -927 -234 -73 44 -401 367
-549 542 -106 124 -200 257 -243 342 l-28 55 2 655 c1 361 6 692 12 738 31
263 159 440 369 513 64 22 74 23 505 24 464 1 543 6 775 55 478 100 667 335
520 648 l-30 63 -777 -4 c-660 -3 -796 -6 -898 -21 -345 -48 -616 -150 -757
-284 -21 -20 -39 -34 -40 -31 -2 2 -19 51 -37 107 -68 205 -351 741 -500 946
-226 312 -370 656 -427 1021 -26 165 -26 513 0 670 66 403 211 748 448 1063
93 124 278 315 400 413 413 332 850 505 1423 563 98 10 445 -4 570 -23z"/>
</g>
</svg>
